<?xml version="1.0" standalone="no"?>
<!DOCTYPE svg PUBLIC "-//W3C//DTD SVG 20010904//EN"
 "http://www.w3.org/TR/2001/REC-SVG-20010904/DTD/svg10.dtd">
<svg version="1.0" xmlns="http://www.w3.org/2000/svg"
 width="173.000000pt" height="173.000000pt" viewBox="0 0 173.000000 173.000000"
 preserveAspectRatio="xMidYMid meet">
<metadata>
Created by potrace 1.10, written by Peter Selinger 2001-2011
</metadata>
<g transform="translate(0.000000,173.000000) scale(0.100000,-0.100000)"
fill="#000000" stroke="none">
<path d="M777 1723 c17 -6 -10 -34 -35 -36 -10 0 -19 -6 -20 -12 -5 -47 -13
-58 -29 -41 -5 6 -2 6 7 1 9 -5 12 -4 7 1 -11 11 -68 14 -61 3 2 -4 11 -6 19
-3 7 3 18 -4 24 -15 10 -17 9 -20 -5 -14 -11 4 -15 2 -11 -4 4 -6 2 -13 -3
-15 -6 -2 -12 -13 -13 -26 -1 -14 -6 -21 -14 -17 -11 3 -11 0 -3 -15 7 -14 7
-20 0 -21 -5 -1 -14 -3 -20 -4 -5 -1 -13 -3 -17 -4 -4 0 1 -7 12 -14 21 -16
12 -37 -16 -37 -10 0 -19 -5 -19 -11 0 -5 5 -7 10 -4 6 4 10 -5 10 -20 0 -14
-4 -24 -9 -21 -5 4 -7 -4 -4 -16 4 -19 3 -20 -7 -8 -9 12 -11 11 -9 -10 1 -14
0 -27 -1 -30 -3 -11 -7 -70 -4 -70 2 0 13 32 24 71 35 115 104 253 154 307 25
27 42 53 38 57 -4 5 -2 6 3 2 6 -3 22 3 35 14 l25 19 -40 -1 c-22 0 -34 -3
-28 -6z"/>
<path d="M930 1724 c0 -3 31 -38 69 -78 72 -76 117 -156 165 -295 14 -41 28
-76 30 -79 10 -9 18 49 8 61 -5 6 -8 26 -7 42 2 17 1 25 -2 18 -3 -10 -7 -10
-18 0 -8 8 -9 14 -2 18 6 4 -4 32 -27 73 -20 36 -34 71 -30 78 4 6 3 8 -3 5
-6 -4 -13 -1 -16 6 -4 10 6 14 37 15 36 2 45 -2 54 -20 10 -22 11 -21 11 10
l1 33 -54 -2 c-29 -1 -58 1 -65 5 -6 4 -11 2 -11 -5 0 -8 -4 -8 -15 1 -9 7
-14 15 -11 17 2 2 158 4 347 4 189 -1 339 2 332 7 -6 4 -133 7 -281 7 -149 -1
-268 3 -266 7 3 4 -13 8 -35 8 -24 0 -41 -5 -41 -11 0 -8 -6 -7 -17 2 -13 12
-17 12 -21 1 -3 -10 -8 -7 -19 7 -8 12 -12 25 -9 30 8 12 -30 44 -46 38 -9 -4
-8 -6 3 -6 9 -1 22 -8 29 -16 10 -13 9 -15 -10 -15 -13 0 -20 3 -17 7 9 8 -24
32 -45 33 -10 0 -18 -2 -18 -6z"/>
<path d="M853 1708 c-41 -11 -43 -20 -3 -12 16 4 43 1 61 -5 26 -9 29 -9 20 3
-16 20 -41 24 -78 14z"/>
<path d="M825 1669 l-40 -18 40 7 c22 4 60 6 85 5 30 -1 38 1 25 6 -46 18 -72
18 -110 0z"/>
<path d="M48 1643 c29 -2 74 -2 100 0 26 2 2 3 -53 3 -55 0 -76 -1 -47 -3z"/>
<path d="M241 1645 c3 -2 22 -7 43 -11 26 -4 36 -2 31 5 -3 6 -22 11 -42 11
-20 0 -34 -2 -32 -5z"/>
<path d="M823 1640 c-27 -6 -76 -40 -58 -40 3 0 -5 -15 -18 -32 -14 -18 -28
-44 -32 -57 -4 -13 -31 -61 -61 -106 -30 -46 -54 -87 -54 -91 0 -5 21 12 48
38 26 25 57 49 69 52 12 4 20 13 17 20 -3 7 2 19 11 26 16 14 21 35 5 25 -13
-8 -1 26 18 47 8 9 15 28 16 41 0 14 4 23 8 21 4 -2 9 0 13 6 4 6 11 7 17 4 7
-5 8 -2 3 6 -11 18 14 30 70 31 37 0 45 3 30 9 -24 10 -59 11 -102 0z"/>
<path d="M0 1610 c0 -5 10 -10 23 -10 21 0 22 -3 19 -65 -4 -61 -13 -81 -26
-52 -3 6 -5 3 -3 -8 1 -11 6 -19 10 -17 4 1 17 2 28 2 16 0 19 3 12 13 -5 6
-8 32 -8 57 3 67 4 72 15 65 5 -3 11 -36 12 -73 1 -49 3 -55 5 -24 3 30 9 42
20 42 11 0 14 -6 10 -22 -6 -22 -3 -23 46 -24 29 -1 42 0 30 3 -33 6 -30 39 5
51 20 7 10 8 -40 4 -63 -4 -68 -3 -68 15 0 13 9 23 22 27 32 8 38 7 38 -4 0
-5 -6 -10 -14 -10 -8 0 -17 -4 -20 -8 -2 -4 24 -4 60 2 36 5 59 13 53 17 -7 4
-19 5 -27 1 -10 -3 -13 -1 -8 6 3 6 24 9 46 7 22 -2 40 1 40 6 0 5 -60 9 -140
9 -87 0 -140 -4 -140 -10z"/>
<path d="M1470 1602 c0 -4 32 -6 70 -4 39 3 70 0 68 -4 -1 -5 2 -20 6 -33 6
-16 4 -26 -5 -32 -11 -7 -11 -9 -1 -9 8 0 12 -8 10 -17 -2 -13 -16 -20 -48
-24 l-45 -6 53 -1 52 -2 0 50 c0 48 1 50 28 51 24 2 23 2 -8 9 -19 4 -29 8
-22 9 6 0 12 6 12 11 0 6 -35 10 -85 10 -47 0 -85 -4 -85 -8z"/>
<path d="M877 1593 c13 -2 30 -18 40 -34 10 -16 23 -29 31 -29 10 0 12 -8 7
-30 -4 -19 -3 -30 4 -30 8 0 7 -7 -1 -20 -7 -11 -21 -20 -32 -20 -38 0 -9 -10
41 -14 29 -2 57 -7 64 -12 14 -8 11 -3 -34 63 -15 24 -25 47 -22 53 10 16 23
3 49 -48 22 -43 50 -74 100 -113 11 -8 5 6 -15 36 -19 28 -36 52 -39 55 -3 3
-10 14 -16 25 -6 11 -29 34 -51 50 -22 17 -44 39 -49 50 -7 15 -20 20 -54 21
-25 1 -35 0 -23 -3z"/>
<path d="M1310 1574 c64 -14 116 -12 105 5 -3 5 -42 9 -88 9 l-82 0 65 -14z"/>
<path d="M1222 1508 c2 -26 8 -43 18 -45 12 -4 12 -3 1 5 -11 8 -11 10 0 15
12 4 11 7 -1 16 -10 7 -11 11 -2 11 6 0 12 9 12 20 0 11 -7 20 -16 20 -12 0
-14 -9 -12 -42z"/>
<path d="M400 1480 c0 -4 21 -5 48 -3 70 7 75 12 10 11 -32 -1 -58 -5 -58 -8z"/>
<path d="M114 1472 c4 -8 -3 -16 -18 -22 -22 -8 -25 -14 -20 -40 6 -30 6 -30
-35 -30 -28 0 -41 -4 -41 -14 0 -17 88 -27 94 -11 3 6 9 3 15 -5 10 -13 12
-13 20 -1 8 13 12 13 27 0 15 -12 17 -12 12 1 -3 8 -1 23 4 33 7 13 5 17 -8
17 -10 0 -14 -5 -10 -15 8 -21 -11 -19 -23 3 -6 9 -11 11 -11 5 0 -22 -30 -14
-30 7 0 18 4 20 35 14 22 -4 35 -2 35 5 0 6 -6 8 -14 5 -10 -4 -13 0 -11 13 2
10 4 20 4 23 1 3 5 -1 10 -8 6 -10 10 -10 21 3 10 13 9 15 -8 15 -11 0 -28 3
-38 7 -12 4 -15 3 -10 -5z"/>
<path d="M771 1437 c-6 -8 -8 -16 -5 -20 3 -3 -8 -13 -25 -22 -34 -17 -40 -26
-13 -18 23 6 45 24 60 51 13 24 1 30 -17 9z"/>
<path d="M1220 1432 c0 -13 9 -18 30 -20 17 -1 30 2 30 8 0 5 -9 10 -20 10
-11 0 -20 5 -20 10 0 6 -4 10 -10 10 -5 0 -10 -8 -10 -18z"/>
<path d="M1578 1437 c35 -8 41 -13 37 -28 -4 -11 -2 -19 4 -19 6 0 11 12 11
28 0 25 -3 27 -48 28 l-47 2 43 -11z"/>
<path d="M1310 1431 c-29 -8 -17 -19 23 -19 16 0 27 6 27 14 0 15 -11 16 -50
5z"/>
<path d="M965 1364 c28 -13 55 -24 62 -24 6 0 21 -12 32 -27 12 -14 24 -23 28
-20 3 4 14 -3 24 -14 10 -12 22 -18 28 -15 5 4 7 -3 3 -16 -3 -14 -2 -19 6
-14 8 5 12 -1 12 -18 0 -14 -4 -27 -10 -31 -5 -3 -7 -12 -3 -21 3 -9 0 -14 -8
-12 -7 2 -13 -2 -14 -7 0 -12 -56 -68 -101 -102 -16 -12 -24 -22 -17 -22 15
-1 160 125 173 150 19 35 11 77 -21 113 -40 46 -160 106 -208 105 l-36 -1 50
-24z"/>
<path d="M691 1347 c-104 -52 -159 -153 -116 -214 8 -11 24 -23 36 -26 21 -6
21 -5 -4 21 -25 28 -28 59 -6 73 7 4 13 18 14 31 1 12 8 22 14 20 7 -1 10 2 6
8 -3 5 5 14 19 20 14 5 38 23 55 40 19 20 35 29 43 24 7 -4 10 -4 6 1 -4 4 -3
14 3 22 18 21 -1 16 -70 -20z"/>
<path d="M1323 1363 c20 -2 54 -2 75 0 20 2 3 4 -38 4 -41 0 -58 -2 -37 -4z"/>
<path d="M1454 1345 c-2 -24 1 -25 50 -25 28 0 58 5 66 10 10 7 -4 9 -46 7
-47 -2 -61 0 -57 10 6 15 124 15 135 -1 5 -8 8 -7 8 0 0 8 21 12 56 13 31 0
59 3 62 6 3 3 -57 5 -134 5 l-139 0 -1 -25z"/>
<path d="M1234 1315 c-6 -19 -9 -35 -7 -35 12 0 29 27 25 39 -2 7 2 17 9 22
12 7 11 9 -1 9 -9 0 -20 -15 -26 -35z"/>
<path d="M1332 1328 c-9 -4 9 -7 41 -7 31 -1 57 2 57 7 0 9 -75 9 -98 0z"/>
<path d="M0 1321 c0 -6 63 -9 150 -8 83 1 150 5 150 9 0 4 -67 8 -150 8 -86 0
-150 -4 -150 -9z"/>
<path d="M1454 1301 c-12 -12 2 -16 56 -15 81 2 87 11 10 16 -34 1 -64 1 -66
-1z"/>
<path d="M78 1293 c63 -5 70 -23 9 -23 -32 0 -44 -4 -44 -15 0 -8 9 -15 19
-15 10 0 18 5 18 10 0 6 5 10 10 10 6 0 10 -7 10 -15 0 -8 -4 -15 -10 -15 -5
0 -10 -6 -10 -12 0 -7 11 -1 24 14 13 15 27 24 30 21 3 -4 6 6 6 20 0 26 -1
27 -57 25 l-58 -2 53 -3z"/>
<path d="M1236 1261 c-2 -3 19 -7 47 -9 29 -2 48 0 43 5 -9 9 -85 13 -90 4z"/>
<path d="M1498 1259 c-12 -4 35 -7 106 -8 71 -1 127 1 125 3 -7 8 -206 11
-231 5z"/>
<path d="M160 1231 c0 -4 24 -6 53 -4 77 7 81 11 10 12 -35 1 -63 -3 -63 -8z"/>
<path d="M1457 1234 c-11 -11 -8 -52 4 -60 8 -5 8 -9 -1 -14 -9 -5 -9 -9 -1
-14 6 -4 11 -2 11 3 0 6 4 11 9 11 6 0 12 -17 14 -37 l4 -38 1 43 2 42 114 0
114 0 0 25 c0 15 -6 25 -14 25 -8 0 -14 -4 -14 -10 0 -5 -19 -10 -42 -10 -32
0 -39 -3 -28 -10 10 -7 -9 -10 -63 -10 -50 0 -76 4 -72 10 3 6 1 10 -6 10 -7
0 -4 7 7 16 14 12 15 14 3 11 -9 -3 -21 -1 -26 4 -5 5 -12 6 -16 3z"/>
<path d="M1398 1224 c6 -3 9 -11 6 -16 -5 -7 -2 -8 6 -3 10 6 12 3 8 -13 -4
-12 -2 -22 4 -22 5 0 8 12 6 27 -2 19 -9 29 -23 30 -11 2 -14 0 -7 -3z"/>
<path d="M1220 1193 c0 -2 23 -14 50 -27 28 -13 50 -20 50 -15 0 5 -5 9 -11 9
-5 0 -7 5 -4 11 4 6 0 9 -11 7 -11 -2 -18 2 -17 7 1 6 -12 10 -28 10 -16 0
-29 -1 -29 -2z"/>
<path d="M414 1153 c17 -21 15 -28 -6 -24 -5 0 -7 -2 -6 -6 3 -16 -15 -43 -25
-36 -5 3 -7 1 -4 -5 4 -5 4 -17 1 -26 -5 -14 -9 -14 -22 -4 -13 11 -14 10 -3
-10 10 -18 9 -23 -3 -28 -8 -3 -12 -12 -9 -20 3 -8 0 -14 -6 -14 -6 0 -11 -5
-11 -11 0 -19 18 1 48 54 36 63 63 89 128 122 27 15 40 23 29 19 -11 -4 -28
-7 -38 -8 -9 -1 -23 -8 -29 -14 -9 -9 -18 -7 -37 11 l-26 22 19 -22z"/>
<path d="M1172 1139 c-12 -15 -23 -33 -25 -40 -2 -8 -2 -11 0 -6 3 4 12 7 21
7 15 0 15 2 2 10 -8 5 -13 10 -10 11 3 0 18 3 34 5 16 3 34 11 42 18 11 12 9
14 -14 18 -20 3 -33 -3 -50 -23z"/>
<path d="M1554 1153 c15 -4 16 -7 5 -14 -11 -7 -11 -9 4 -9 9 0 17 5 17 12 0
9 3 9 12 0 7 -7 23 -12 38 -11 23 0 23 1 5 9 -16 6 -12 9 20 12 22 3 4 5 -40
5 -44 0 -71 -2 -61 -4z"/>
<path d="M1368 1140 c-15 -4 -30 -5 -35 -2 -4 4 3 -7 18 -23 37 -44 72 -102
105 -172 27 -60 54 -83 54 -45 0 12 -3 14 -8 4 -9 -13 -15 -3 -41 61 -8 21 -8
27 2 27 9 0 9 2 -1 8 -7 5 -11 15 -9 23 2 8 2 11 0 6 -6 -9 -23 1 -23 14 0 5
8 9 18 10 14 0 14 2 -3 8 -12 5 -23 4 -27 -3 -5 -6 -8 -2 -8 11 0 12 -5 25
-10 28 -6 4 -8 11 -5 16 4 5 -6 10 -22 10 -21 1 -23 3 -8 6 11 3 24 9 30 14
10 10 10 10 -27 -1z"/>
<path d="M507 1129 c-10 -6 -39 -30 -64 -53 -38 -36 -46 -49 -50 -90 -6 -46
-5 -48 16 -41 12 4 21 2 21 -4 0 -6 -12 -11 -26 -11 -23 0 -25 -2 -14 -15 7
-9 16 -12 19 -7 3 5 14 11 24 15 21 8 22 26 2 33 -12 5 -13 10 -4 20 6 8 9 20
6 28 -3 8 3 22 14 32 10 9 17 20 13 23 -3 3 16 11 43 17 36 9 41 12 20 13 -17
1 -26 5 -22 11 4 6 16 8 27 4 16 -5 19 -3 12 7 -6 10 -3 10 11 -1 17 -14 18
-13 12 3 -4 10 -7 21 -7 23 0 8 -35 3 -53 -7z"/>
<path d="M1230 1105 c-10 -12 -10 -15 3 -15 9 0 22 -9 30 -20 8 -11 16 -18 19
-15 3 3 6 -25 7 -61 2 -52 -1 -64 -11 -58 -11 6 -11 5 0 -8 11 -14 8 -17 -19
-27 -18 -6 -44 -12 -58 -12 -21 -1 -20 -3 9 -8 19 -4 40 -3 46 1 7 5 14 0 17
-14 9 -35 16 -18 32 78 21 129 20 141 -15 159 -36 19 -44 19 -60 0z"/>
<path d="M80 1101 c0 -16 18 -22 22 -9 4 10 10 10 33 0 29 -13 41 -11 30 7 -8
13 -85 15 -85 2z"/>
<path d="M640 1089 c0 -5 4 -8 9 -5 5 3 11 -1 14 -8 3 -8 16 -20 29 -26 l23
-11 -24 20 c-13 12 -19 21 -15 21 11 0 -18 20 -28 20 -5 0 -8 -5 -8 -11z"/>
<path d="M1327 968 c-21 -126 -22 -123 4 -97 17 17 19 23 8 31 -11 7 -11 11
-1 15 6 2 9 10 5 16 -4 7 1 6 10 -2 17 -14 24 -26 9 -17 -5 3 -9 -8 -9 -24 0
-16 7 -32 15 -35 20 -7 20 -7 23 50 3 53 -12 119 -34 148 -11 16 -15 5 -30
-85z"/>
<path d="M1068 1039 c-10 -5 -23 -19 -29 -31 -9 -16 -8 -19 3 -12 7 4 19 16
26 26 12 16 16 17 30 6 15 -12 16 -11 3 5 -7 9 -14 17 -15 17 0 0 -9 -5 -18
-11z"/>
<path d="M1563 1013 c31 -2 83 -2 115 0 31 2 5 3 -58 3 -63 0 -89 -1 -57 -3z"/>
<path d="M0 971 c0 -4 59 -9 130 -9 81 -1 128 3 125 8 -8 12 -255 13 -255 1z"/>
<path d="M340 935 c-17 -40 -14 -156 5 -201 8 -20 15 -45 15 -56 0 -10 4 -16
10 -13 11 7 5 210 -9 265 l-8 35 -13 -30z"/>
<path d="M1418 925 c-6 -112 -5 -117 17 -113 18 4 21 0 19 -28 -3 -27 1 -33
22 -37 29 -5 29 -3 -4 103 l-16 55 -4 -38 c-2 -20 -7 -35 -11 -32 -5 2 -6 24
-4 49 3 24 0 52 -6 62 -9 16 -11 13 -13 -21z"/>
<path d="M900 939 c0 -6 -6 -7 -12 -3 -7 4 -10 4 -6 -1 4 -4 3 -16 -2 -25 -7
-13 -6 -20 4 -23 10 -4 12 0 9 14 -4 13 0 19 11 19 11 0 15 -7 13 -22 -2 -13
-2 -17 0 -11 4 10 9 10 26 1 12 -7 25 -11 30 -10 10 3 9 -6 -4 -30 -9 -18 -9
-20 4 -15 13 5 15 -2 10 -47 -3 -34 -1 -56 5 -60 8 -5 10 7 8 36 -2 24 1 52 5
63 7 15 8 12 5 -15 -2 -19 0 -44 5 -55 6 -16 8 -12 8 18 l1 37 135 0 c113 0
135 2 135 15 0 13 -22 15 -136 15 -120 0 -135 2 -124 15 7 8 21 15 30 15 10 0
25 3 34 6 28 11 -7 33 -48 30 -20 -2 -36 1 -36 5 0 5 7 9 15 9 8 0 15 5 15 10
0 7 -6 7 -19 1 -10 -6 -22 -7 -26 -3 -5 4 -6 3 -3 -3 8 -14 -14 -32 -36 -29
-20 3 -38 23 -30 35 2 4 -3 9 -11 13 -8 3 -15 1 -15 -5z m155 -57 c-11 -3 -25
-12 -32 -21 -9 -12 -14 -13 -23 -4 -15 14 -3 36 16 29 8 -3 14 -1 14 3 0 5 10
6 23 3 20 -6 21 -6 2 -10z"/>
<path d="M0 922 c0 -4 22 -7 50 -7 27 0 50 3 50 8 0 4 -22 7 -50 7 -27 0 -50
-3 -50 -8z"/>
<path d="M433 897 c-18 -6 -33 -14 -33 -19 0 -5 5 -6 11 -3 6 4 26 7 45 7 19
0 34 4 34 8 0 14 -24 17 -57 7z"/>
<path d="M47 892 c-27 -2 -47 -8 -45 -13 4 -13 -2 -13 91 -4 42 4 77 11 77 15
0 7 -34 8 -123 2z"/>
<path d="M654 893 c-7 -5 24 -9 69 -11 44 -1 78 0 76 2 -9 8 -135 16 -145 9z"/>
<path d="M1112 873 c-11 -11 -5 -13 28 -13 43 0 47 14 7 22 -13 2 -29 -1 -35
-9z"/>
<path d="M810 865 c0 -11 11 -15 40 -15 22 0 40 4 40 8 0 4 -17 7 -37 5 -33
-2 -34 -1 -13 6 l25 9 -27 1 c-19 1 -28 -4 -28 -14z"/>
<path d="M55 852 c-22 -2 -44 -8 -50 -13 -5 -5 26 -9 83 -9 55 0 92 -4 92 -10
0 -5 -9 -10 -20 -10 -11 0 -20 -5 -20 -10 0 -13 32 -9 42 5 4 5 10 2 14 -8 3
-9 10 -17 16 -17 5 0 5 6 0 16 -5 9 -7 25 -5 35 4 15 -1 19 -23 21 -54 3 -89
3 -129 0z"/>
<path d="M1497 840 c3 -8 9 -34 16 -57 12 -45 27 -58 27 -23 0 11 -4 20 -10
20 -5 0 -10 7 -10 15 0 9 6 12 17 8 11 -4 14 -3 9 6 -5 7 -15 10 -23 7 -12 -5
-14 -1 -10 14 3 11 1 18 -3 15 -5 -3 -10 -2 -13 2 -2 5 -2 1 0 -7z"/>
<path d="M1618 823 c-1 -16 -2 -36 -1 -46 0 -11 -12 -21 -31 -26 l-31 -9 38 1
37 0 0 54 c0 55 -9 74 -12 26z"/>
<path d="M509 816 c8 -10 9 -16 1 -21 -5 -3 -10 -1 -10 4 0 13 -57 15 -64 2
-3 -5 13 -11 36 -15 28 -5 44 -3 49 5 9 15 1 39 -13 39 -6 0 -6 -6 1 -14z"/>
<path d="M298 804 c-4 -6 -11 -28 -17 -50 -5 -21 -18 -67 -29 -101 -11 -35
-17 -63 -13 -63 18 0 73 82 68 101 -3 10 -1 19 4 19 5 0 9 -11 9 -24 0 -13 6
-26 14 -29 11 -5 13 0 6 23 -5 16 -11 34 -15 40 -3 5 -9 29 -13 52 -4 24 -11
38 -14 32z"/>
<path d="M651 754 c-1 -33 2 -53 7 -50 10 6 11 91 1 100 -3 3 -7 -19 -8 -50z"/>
<path d="M817 793 c-4 -3 -31 -5 -61 -4 -51 2 -79 -10 -56 -24 5 -3 10 0 10 7
0 10 3 9 9 -1 8 -13 12 -13 26 -1 14 11 18 11 25 1 4 -8 13 -10 19 -7 6 4 11
0 11 -11 0 -15 -8 -18 -52 -16 -32 2 -46 0 -35 -5 15 -7 39 -7 106 -3 12 1 12
4 3 13 -13 13 -16 39 -4 36 4 0 14 1 22 5 8 3 22 8 30 10 8 3 1 6 -16 6 -17 1
-34 -2 -37 -6z"/>
<path d="M1240 788 c-14 -6 -63 -10 -110 -11 l-85 0 78 -15 c64 -13 80 -13 87
-2 4 7 13 9 19 6 6 -4 11 -2 11 4 0 7 6 8 19 1 20 -11 31 -5 31 16 0 15 -15
16 -50 1z"/>
<path d="M1310 791 c0 -5 -3 -17 -6 -26 -6 -15 -1 -16 42 -10 27 4 57 15 67
23 16 14 17 14 12 0 -4 -9 -2 -19 4 -23 7 -4 11 4 11 19 0 28 -18 34 -38 14
-9 -9 -12 -9 -12 0 0 7 -16 12 -40 12 -22 0 -40 -4 -40 -9z"/>
<path d="M164 773 c5 -10 -4 -11 -38 -7 -31 5 -46 3 -46 -5 0 -6 18 -11 43
-11 30 0 38 -3 27 -10 -12 -8 -13 -13 -3 -28 10 -17 8 -23 -13 -41 -13 -11
-32 -21 -42 -21 -14 0 -15 -2 -2 -10 8 -5 28 -10 44 -10 21 0 27 4 22 15 -3 9
0 24 6 35 9 14 9 22 -2 34 -11 14 -11 16 2 11 10 -4 14 2 13 19 0 13 -4 28 -9
33 -5 5 -6 3 -2 -4z"/>
<path d="M455 760 c-3 -6 4 -10 17 -10 13 0 34 -3 48 -5 22 -5 21 -3 -5 9 -36
18 -52 19 -60 6z"/>
<path d="M1055 733 l-41 -4 1 -44 c0 -26 5 -47 12 -49 15 -6 19 -1 28 43 6 30
26 46 51 42 4 0 9 -23 11 -50 l4 -50 -33 3 c-42 4 -58 -2 -58 -21 0 -13 3 -13
16 -2 13 11 14 9 9 -14 -6 -22 -3 -27 19 -33 14 -3 24 -10 21 -14 -5 -8 165
-23 173 -15 3 3 -11 5 -31 5 -25 0 -37 5 -37 14 0 14 52 17 66 3 4 -4 32 -6
63 -5 l56 2 -48 3 c-32 3 -45 8 -41 15 5 7 1 9 -9 5 -10 -3 -17 -2 -17 3 0 5
-10 7 -22 5 -13 -2 -58 -6 -100 -9 -66 -6 -78 -4 -78 9 0 12 15 15 80 15 90 0
107 16 28 26 -42 6 -48 9 -35 18 12 9 13 16 4 31 -18 32 -15 56 7 65 23 9 -17
10 -99 3z"/>
<path d="M1351 734 c-1 -7 -12 -15 -25 -18 -19 -5 -23 -10 -18 -28 5 -20 7
-21 10 -4 3 16 10 18 55 13 28 -4 54 -12 59 -19 5 -9 8 -6 8 10 0 22 -5 24
-55 26 -11 0 -23 7 -27 16 -4 8 -7 10 -7 4z"/>
<path d="M1490 720 c-8 -5 -17 -7 -21 -4 -4 2 -10 0 -14 -6 -3 -5 -2 -10 3
-10 5 0 7 -15 6 -32 -3 -30 -3 -31 5 -8 8 23 9 24 10 3 1 -12 -4 -25 -10 -28
-6 -4 -8 -14 -5 -22 3 -8 1 -11 -4 -8 -12 8 -12 8 -1 -33 5 -17 6 -32 2 -32
-5 0 -8 -12 -8 -26 0 -15 3 -21 7 -15 4 8 21 -2 48 -30 23 -23 42 -37 42 -31
0 6 -6 13 -12 15 -8 3 -4 6 7 8 34 3 68 8 130 17 49 8 54 10 25 12 -19 1 -39
1 -45 0 -59 -12 -74 -9 -87 17 -9 18 -25 30 -48 36 -19 5 -37 10 -39 12 -1 2
4 26 14 54 20 61 18 125 -5 111z"/>
<path d="M700 701 c5 -11 10 -30 11 -43 0 -13 3 -17 6 -10 2 6 12 12 21 13 14
0 13 2 -3 9 -11 5 -14 9 -7 9 7 1 4 9 -8 21 -25 25 -34 26 -20 1z"/>
<path d="M1534 693 c2 -16 13 -61 26 -100 20 -66 24 -72 41 -63 22 12 26 25 5
17 -10 -4 -13 -1 -10 8 4 9 26 15 67 18 61 3 61 3 -11 4 -67 0 -103 10 -74 20
6 3 12 9 12 14 0 6 -4 8 -9 5 -11 -7 -35 49 -27 62 3 6 21 8 40 5 31 -4 34 -2
29 16 -3 12 -9 21 -14 21 -5 0 -6 -6 -3 -14 4 -10 -2 -13 -23 -10 -15 1 -29 8
-31 13 -8 23 -21 10 -18 -16z"/>
<path d="M1241 705 c-10 -43 -9 -45 42 -60 64 -19 66 -19 100 4 l28 18 -24 5
c-17 3 -24 1 -20 -8 2 -6 -1 -15 -8 -20 -8 -4 -10 -3 -5 4 5 9 -9 12 -48 12
-52 0 -55 1 -59 28 -2 15 -5 23 -6 17z"/>
<path d="M420 658 c23 -11 20 -13 -39 -18 -46 -3 -66 -9 -68 -20 -3 -10 -2
-11 4 -4 4 6 43 12 88 13 44 1 82 4 84 7 10 10 -18 25 -55 30 -36 4 -37 4 -14
-8z"/>
<path d="M763 664 c11 -11 89 -15 82 -4 -3 5 -25 10 -47 10 -23 0 -38 -3 -35
-6z"/>
<path d="M207 637 c-10 -12 -13 -23 -7 -25 5 -2 10 -8 10 -13 0 -6 -4 -7 -10
-4 -6 3 -7 -1 -4 -9 3 -9 1 -16 -5 -16 -6 0 -11 9 -11 20 0 17 -6 19 -61 15
-33 -2 -63 -6 -67 -9 -6 -6 48 -11 87 -7 13 1 28 -4 32 -11 12 -19 11 -30 -3
-22 -7 4 -8 3 -4 -5 6 -9 12 -9 24 1 14 10 15 10 5 -2 -15 -16 -17 -30 -5 -30
12 0 34 78 26 91 -4 6 -1 15 6 19 7 4 11 13 9 18 -2 6 -12 1 -22 -11z"/>
<path d="M770 633 c0 -5 21 -9 48 -9 33 -1 41 1 27 6 -26 11 -75 12 -75 3z"/>
<path d="M266 587 c-36 -26 -73 -107 -48 -107 9 0 58 72 55 82 -2 4 4 5 12 2
8 -4 15 -10 15 -16 0 -5 6 -6 13 -2 8 5 8 2 -2 -9 -12 -15 -10 -17 15 -17 22
0 26 3 14 10 -12 8 -9 10 13 10 19 0 27 4 24 13 -2 7 -18 11 -42 9 -33 -2 -37
0 -32 18 7 29 -4 31 -37 7z"/>
<path d="M452 588 c-14 -5 -13 -7 6 -7 12 -1 22 -6 22 -12 0 -6 -17 -9 -45 -6
-25 3 -45 1 -45 -4 0 -5 10 -9 23 -10 20 -1 159 0 200 1 10 0 15 5 12 11 -4 6
-19 7 -35 4 -17 -4 -31 -2 -35 5 -5 9 -1 10 14 5 12 -3 21 -2 21 3 0 12 -113
20 -138 10z"/>
<path d="M737 586 c-77 -10 -85 -13 -67 -24 14 -8 20 -9 20 -1 0 7 10 9 25 7
14 -3 28 -1 31 3 3 5 10 9 16 9 6 0 6 -6 -2 -15 -11 -13 -10 -14 4 -9 9 3 16
10 16 16 0 5 6 8 13 7 6 -1 23 3 37 9 30 13 21 13 -93 -2z"/>
<path d="M30 560 c-27 -5 -18 -7 43 -11 42 -2 77 -1 77 4 0 4 -12 7 -27 8 -16
0 -35 2 -43 3 -8 1 -31 -1 -50 -4z"/>
<path d="M777 538 c-7 -4 16 -8 51 -8 34 0 62 3 62 8 0 9 -98 9 -113 0z"/>
<path d="M249 490 c-17 -16 -28 -34 -25 -39 5 -8 76 53 76 65 0 13 -26 0 -51
-26z"/>
<path d="M435 500 c23 -6 10 -8 -50 -9 -64 -1 -85 -5 -105 -22 l-25 -20 45 7
c40 6 43 5 32 -9 -8 -9 -19 -14 -25 -12 -17 7 -33 -6 -41 -33 -7 -22 -6 -21
40 8 26 16 61 30 76 30 15 0 28 5 28 11 0 5 -4 8 -9 5 -5 -4 -19 -2 -32 2 -18
7 -19 10 -6 15 9 3 19 2 22 -3 4 -6 14 -6 27 1 18 10 20 9 15 -5 -4 -9 -2 -16
3 -16 6 0 10 7 10 16 0 11 6 14 20 9 11 -3 20 -2 20 4 0 5 10 8 23 5 54 -13
65 -12 60 5 -3 13 -19 16 -81 18 -54 1 -68 -1 -47 -7z"/>
<path d="M1228 503 c17 -2 47 -2 65 0 17 2 3 4 -33 4 -36 0 -50 -2 -32 -4z"/>
<path d="M1382 478 c2 -7 14 -18 28 -24 14 -6 45 -28 68 -48 50 -41 65 -45 60
-15 -3 24 -10 29 -78 59 -38 17 -41 20 -15 17 17 -3 39 -7 50 -12 17 -6 17 -4
-3 12 -28 23 -114 31 -110 11z"/>
<path d="M1360 454 c0 -6 -18 -11 -42 -10 -28 0 -42 -4 -41 -12 2 -6 -6 -16
-17 -22 -11 -6 -19 -14 -16 -18 2 -4 -6 -8 -17 -9 -89 -8 -111 -12 -118 -24
-4 -8 -15 -23 -24 -34 -14 -17 -16 -17 -11 -2 3 9 3 17 0 17 -9 0 -36 -30 -27
-30 4 -1 -3 -7 -17 -15 -14 -8 -21 -14 -16 -15 5 0 1 -9 -9 -20 -32 -35 -9
-32 30 5 22 19 44 35 51 35 7 0 22 12 33 27 19 23 24 25 46 15 21 -10 32 -8
70 12 51 28 77 25 105 -12 30 -37 34 -67 16 -103 -24 -49 -21 -59 19 -57 38 1
45 11 19 26 -13 7 -14 16 -8 43 l8 34 6 -33 5 -34 27 21 c14 12 33 21 42 21 9
0 16 5 16 10 0 6 -6 10 -12 10 -7 0 -26 7 -42 15 -18 9 -32 12 -35 6 -4 -5
-16 8 -28 30 -12 21 -17 39 -13 39 5 0 13 -6 17 -13 8 -13 58 -47 68 -47 6 0
-67 58 -94 74 -10 6 -12 5 -7 -2 4 -7 3 -12 -3 -12 -5 0 -13 5 -16 10 -3 6
-21 10 -38 10 -24 0 -28 3 -17 10 8 5 26 10 39 10 21 0 22 2 10 18 -13 16 -12
16 6 1 11 -8 42 -34 69 -57 27 -23 51 -41 53 -38 5 4 -34 68 -64 104 -12 15
-23 22 -23 16z"/>
<path d="M1569 439 c-9 -5 21 -9 75 -9 49 0 87 2 85 5 -9 9 -147 12 -160 4z"/>
<path d="M82 431 c-23 -14 13 -34 47 -26 39 8 50 25 17 25 -14 0 -26 -5 -26
-12 0 -7 -6 -4 -12 5 -8 10 -18 14 -26 8z"/>
<path d="M235 411 c-10 -20 -12 -32 -4 -36 14 -9 19 -3 24 34 5 39 0 39 -20 2z"/>
<path d="M420 429 c0 -6 -6 -9 -12 -6 -22 8 -44 -10 -84 -70 -21 -32 -42 -60
-47 -61 -9 -4 1 -22 13 -22 4 0 11 11 14 25 4 14 22 43 42 65 28 31 45 41 82
46 26 5 39 10 30 12 -10 2 -18 8 -18 13 0 5 -4 9 -10 9 -5 0 -10 -5 -10 -11z"/>
<path d="M520 421 c-25 -3 -43 -10 -41 -16 3 -5 -4 -12 -14 -14 -39 -7 -145
-103 -145 -131 0 -8 35 -50 42 -50 2 0 4 10 4 23 1 66 5 98 13 92 6 -3 8 -14
6 -25 -7 -35 15 -21 31 20 17 43 46 59 71 38 9 -7 18 -12 20 -10 1 1 11 2 21
1 9 0 -1 -9 -24 -19 -27 -12 -45 -28 -54 -49 -7 -17 -17 -31 -22 -31 -5 0 -7
4 -4 9 4 5 -3 7 -14 4 -16 -4 -18 -9 -9 -25 6 -11 7 -18 2 -15 -5 3 -17 -3
-26 -14 -9 -10 -13 -19 -9 -20 4 -1 14 -2 22 -3 8 -2 23 -3 33 -4 9 -1 17 -7
17 -12 0 -6 -10 -8 -24 -4 -13 3 -27 1 -30 -5 -5 -7 10 -11 43 -11 28 0 51 -4
51 -10 0 -5 -26 -10 -57 -11 -32 0 -50 -3 -41 -7 16 -7 98 -7 278 -2 41 1 84
-1 95 -6 18 -7 18 -6 6 9 -7 9 -20 17 -27 17 -8 0 -14 5 -14 10 0 6 10 10 22
10 20 0 20 1 5 18 -10 10 -17 24 -17 30 0 7 -4 12 -10 12 -5 0 -10 -19 -10
-43 0 -37 -3 -43 -22 -44 -13 0 -17 1 -10 4 6 3 12 9 12 15 0 6 -7 8 -15 4 -8
-3 -15 -2 -15 3 0 5 7 14 15 21 20 17 19 40 -2 40 -14 0 -15 2 -4 9 11 7 10
11 -5 21 -16 10 -16 11 -1 6 11 -4 17 0 17 10 0 11 -6 15 -20 11 -15 -4 -22 1
-26 19 -3 13 -11 24 -16 24 -6 0 -7 -10 -4 -22 16 -51 32 -136 28 -147 -5 -15
-42 -14 -42 2 0 9 -2 9 -9 -1 -9 -14 -32 -13 -43 3 -4 6 -8 2 -8 -8 0 -11 -5
-17 -12 -14 -7 2 -12 10 -10 17 5 20 -20 120 -30 120 -12 0 -10 -68 2 -75 6
-3 10 -15 10 -25 0 -14 -5 -18 -17 -13 -51 17 -56 71 -11 122 38 43 78 63 135
66 40 2 43 1 78 -51 19 -30 40 -54 45 -54 6 0 10 -6 10 -12 1 -21 25 -47 38
-39 15 9 3 51 -15 51 -8 0 -11 4 -8 10 3 5 -6 21 -20 34 -15 14 -24 30 -20 35
3 6 1 11 -5 11 -7 0 -21 10 -32 23 -11 12 -17 15 -13 7 4 -10 1 -9 -8 3 -9 10
-21 15 -31 11 -9 -3 -16 -2 -16 4 0 6 -9 8 -20 5 -11 -3 -20 0 -20 6 0 6 16
11 37 11 33 0 40 11 9 16 -7 1 -22 4 -32 6 -11 3 -39 2 -64 -1z m28 -22 c-10
-7 -10 -9 2 -9 13 0 13 -1 0 -10 -9 -6 -17 -5 -22 3 -6 9 -8 8 -8 -3 0 -13 -1
-13 -10 0 -15 23 -13 25 21 26 20 1 26 -2 17 -7z"/>
<path d="M1420 423 c0 -14 66 -118 75 -118 4 0 13 8 19 17 8 14 4 24 -24 54
-37 38 -70 60 -70 47z"/>
<path d="M1550 408 c0 -5 42 -7 93 -6 94 1 82 5 -31 10 -34 2 -62 0 -62 -4z"/>
<path d="M292 380 c-29 -26 -47 -80 -22 -65 14 9 63 86 58 91 -2 2 -19 -10
-36 -26z"/>
<path d="M61 365 c21 -21 116 -28 123 -9 6 16 -10 28 -19 14 -8 -13 -71 -13
-98 1 -21 11 -21 10 -6 -6z"/>
<path d="M351 349 c-17 -17 -31 -36 -31 -42 0 -7 12 3 26 20 14 18 33 37 42
43 9 5 12 10 5 10 -6 0 -25 -14 -42 -31z"/>
<path d="M1568 372 c-21 -4 -33 -32 -14 -32 8 0 17 6 19 13 4 10 6 10 6 0 1
-9 23 -13 79 -12 54 1 69 3 52 9 l-25 8 24 1 c13 1 22 4 19 7 -7 6 -134 12
-160 6z"/>
<path d="M1147 283 c-13 -21 -30 -55 -38 -75 -13 -39 -23 -45 -48 -29 -16 10
-6 31 15 31 8 0 14 5 14 10 0 6 -5 10 -10 10 -20 0 9 39 32 43 20 3 21 4 5 11
-23 11 -45 -8 -64 -56 -8 -21 -20 -38 -26 -38 -7 0 -7 -4 1 -12 15 -15 16 -32
2 -23 -5 3 -10 3 -10 -2 0 -4 11 -13 25 -20 14 -6 25 -7 25 -2 0 5 -4 9 -10 9
-5 0 -10 5 -10 10 0 6 9 10 21 10 11 0 17 -4 14 -10 -3 -5 3 -10 15 -10 12 0
18 -4 15 -10 -3 -5 -1 -10 4 -10 6 0 11 4 11 9 0 5 9 11 20 14 13 3 20 0 20
-9 0 -8 4 -14 10 -14 5 0 7 6 4 14 -4 11 0 13 18 9 13 -4 26 -11 30 -17 5 -7
8 -4 8 6 0 11 -10 20 -25 24 -25 6 -35 24 -13 24 6 0 9 3 5 6 -3 4 5 21 19 40
24 30 25 54 4 54 -4 0 -17 -17 -28 -37 -15 -30 -24 -37 -43 -35 l-24 3 23 -16
c12 -9 22 -24 21 -33 0 -13 -3 -12 -11 6 -6 12 -16 22 -22 22 -6 0 -5 -5 2
-12 18 -18 15 -25 -13 -25 -24 0 -34 20 -16 31 5 4 16 27 25 53 9 25 23 55 33
65 9 10 11 18 5 18 -7 0 -22 -17 -35 -37z"/>
<path d="M1285 272 c44 -44 51 -48 57 -31 10 25 -30 65 -74 74 l-33 7 50 -50z"/>
<path d="M545 280 c11 -56 26 -100 35 -100 10 0 8 9 -10 70 -17 57 -35 78 -25
30z"/>
<path d="M584 277 c-3 -10 -1 -24 6 -32 6 -8 9 -18 6 -23 -3 -5 1 -17 8 -28
12 -16 13 -13 9 31 -6 55 -19 78 -29 52z"/>
<path d="M1280 236 c0 -2 -7 -20 -16 -41 -14 -34 -14 -37 0 -32 8 3 22 0 30
-8 8 -8 21 -15 29 -15 9 0 17 -6 20 -12 2 -7 7 -10 11 -7 4 4 -6 21 -22 37
-17 17 -28 33 -25 36 8 7 -7 46 -18 46 -5 0 -9 -2 -9 -4z"/>
<path d="M994 212 c-11 -10 -26 -17 -34 -15 -13 4 -13 3 0 -6 8 -5 18 -7 23
-4 5 3 14 -1 19 -8 6 -10 7 -7 3 10 -4 14 -3 21 2 18 5 -4 10 0 10 8 0 18 1
19 -23 -3z"/>
<path d="M1216 202 c-2 -4 2 -15 9 -25 11 -16 13 -16 19 -1 10 25 -14 48 -28
26z"/>
<path d="M1447 204 c-4 -4 -7 -11 -7 -15 0 -8 26 -6 35 3 4 3 20 2 36 -2 16
-5 29 -6 29 -2 0 4 44 6 97 4 54 -2 95 -1 92 2 -8 8 -243 11 -256 3 -6 -4 -13
-2 -15 4 -2 5 -7 7 -11 3z"/>
<path d="M244 156 c-4 -10 -17 -16 -35 -16 -16 0 -29 -4 -29 -10 0 -5 -10 -8
-22 -6 -24 4 -58 -19 -58 -38 0 -6 10 0 21 14 l20 25 -7 -25 c-4 -14 -12 -28
-18 -32 -6 -4 -8 -10 -4 -13 9 -9 88 -15 88 -6 0 4 288 7 640 7 352 -1 640 -5
640 -9 0 -4 10 -3 21 4 15 8 19 8 15 0 -13 -20 39 -12 62 9 25 23 30 39 7 20
-12 -10 -15 -10 -15 3 0 8 -9 25 -20 38 l-21 24 15 -31 15 -31 -46 -7 c-73
-10 -1361 -7 -1367 3 -13 21 5 37 35 33 20 -3 34 0 40 9 6 10 9 8 9 -8 0 -23
0 -23 158 -21 l157 2 -128 3 c-117 3 -128 5 -122 21 15 36 14 55 -1 20 -11
-25 -22 -36 -35 -35 -22 1 -23 10 -8 39 6 11 8 22 5 25 -3 3 -8 -2 -12 -11z"/>
<path d="M845 160 c-20 -8 -20 -8 0 -16 11 -4 23 -12 27 -18 4 -6 10 -7 15 -2
4 4 0 12 -10 17 -9 6 -15 14 -12 20 7 10 7 10 -20 -1z"/>
<path d="M1416 154 c-3 -8 -2 -13 2 -10 4 2 14 0 22 -5 12 -8 12 -12 2 -16 -6
-2 -10 -9 -6 -14 3 -5 -6 -9 -20 -9 -13 0 -27 6 -29 13 -4 10 -6 10 -6 0 -1
-7 -9 -13 -19 -13 -10 0 -24 6 -31 13 -11 9 -13 9 -7 0 5 -9 -1 -13 -18 -13
-27 0 -35 15 -13 23 9 3 7 10 -5 23 -11 11 -18 13 -18 6 0 -7 6 -12 13 -12 7
-1 5 -6 -5 -14 -10 -7 -15 -16 -11 -19 3 -4 -3 -7 -15 -7 -11 0 -24 5 -27 10
-3 6 -11 10 -16 10 -6 0 -7 -4 -4 -10 9 -15 -89 -12 -104 3 -10 10 -11 9 -6
-5 7 -16 26 -18 209 -17 112 0 192 4 181 8 -11 5 -23 7 -27 4 -5 -2 -8 1 -8 6
0 6 5 11 11 11 5 0 7 5 4 10 -3 6 3 10 14 10 26 0 36 -17 14 -23 -11 -3 -7 -5
10 -6 l28 -1 -18 30 c-18 31 -38 39 -46 18 -3 -10 -9 -10 -25 -1 -16 10 -21 9
-26 -3z"/>
<path d="M789 131 c13 -12 33 -21 44 -21 21 0 21 0 2 14 -11 7 -31 16 -45 20
l-25 7 24 -20z"/>
<path d="M24 102 c4 -7 1 -12 -6 -12 -9 0 -13 -15 -13 -45 0 -44 1 -44 32 -43
18 1 34 6 34 12 3 24 -4 41 -22 57 -10 9 -16 18 -13 22 3 3 0 8 -7 13 -8 4
-10 3 -5 -4z m26 -82 c-20 -12 -30 -3 -30 28 l0 26 23 -22 c18 -19 20 -24 7
-32z"/>
<path d="M613 93 c26 -2 68 -2 95 0 26 2 4 3 -48 3 -52 0 -74 -1 -47 -3z"/>
<path d="M903 93 c37 -2 96 -2 130 0 34 2 4 3 -68 3 -71 0 -99 -1 -62 -3z"/>
</g>
</svg>
